Coordinates
version=1
nRows=5
nColumns=63
inDegrees=yes

Units are S.I. units (second, meters, Newtons, ...)
If the header above contains a line with 'inDegrees', this indicates whether rotational values are in degrees (yes) or radians (no).

endheader
time	pelvis_tilt	pelvis_list	pelvis_rotation	pelvis_tx	pelvis_ty	pelvis_tz	hip_flexion_r	hip_adduction_r	hip_rotation_r	knee_angle_r	knee_angle_r_beta	ankle_angle_r	subtalar_angle_r	mtp_angle_r	hip_flexion_l	hip_adduction_l	hip_rotation_l	knee_angle_l	knee_angle_l_beta	ankle_angle_l	subtalar_angle_l	mtp_angle_l	L5_S1_Flex_Ext	L5_S1_Lat_Bending	L5_S1_axial_rotation	L4_L5_Flex_Ext	L4_L5_Lat_Bending	L4_L5_axial_rotation	L3_L4_Flex_Ext	L3_L4_Lat_Bending	L3_L4_axial_rotation	L2_L3_Flex_Ext	L2_L3_Lat_Bending	L2_L3_axial_rotation	L1_L2_Flex_Ext	L1_L2_Lat_Bending	L1_L2_axial_rotation	L1_T12_Flex_Ext	L1_T12_Lat_Bending	L1_T12_axial_rotation	Abs_r3	Abs_r2	Abs_r1	Abs_t1	Abs_t2	neck_flexion	neck_bending	neck_rotation	arm_flex_r	arm_add_r	arm_rot_r	elbow_flex_r	pro_sup_r	wrist_flex_r	wrist_dev_r	arm_flex_l	arm_add_l	arm_rot_l	elbow_flex_l	pro_sup_l	wrist_flex_l	wrist_dev_l
      1.93333333	     -2.59917941	     -4.75970983	     89.94229480	      0.24290623	      0.90471062	      0.65596243	     10.70444469	     -5.24717589	    -10.14504988	     19.08486558	      0.33309374	     38.38945866	      4.77578412	      0.00000000	     10.98388604	      4.72014199	      5.60268950	     16.23268889	      0.28331387	     35.06418273	     -6.16818603	      0.00000000	      0.07524923	     -0.37093812	      1.30102805	      0.13974535	     -0.49334770	      1.38234231	      0.12362696	     -0.90189894	      1.38234231	      0.08600235	     -0.90189894	      1.13839955	      0.06987644	     -0.75641701	      1.05708529	      0.04299741	     -0.57458315	      0.97577104	      0.53749775	     -4.19612619	      7.23592772	      0.00000000	      0.00000000	     24.35780306	      2.93720496	     -0.23496081	      5.60949850	     -9.87257449	     34.83911403	     47.95117449	     74.68329776	      6.22498465	     -0.01857317	     21.99945632	     -9.00640423	     68.98679603	     44.44388936	     59.77562704	      7.61283647	     -0.85602295
      1.95000000	     -2.35243735	     -4.72516296	     90.61460865	      0.24206198	      0.90461579	      0.65646204	     10.42826138	     -5.21917444	    -11.64973118	     18.78421428	      0.32784639	     38.59158374	      6.13136865	      0.00000000	     11.00157941	      4.60443022	      6.34489512	     16.15657235	      0.28198538	     35.47251593	     -6.05151028	      0.00000000	      0.06928044	     -0.34958580	      1.35285826	      0.12866070	     -0.46494911	      1.43741191	      0.11382083	     -0.84998291	      1.43741191	      0.07918061	     -0.84998291	      1.18375098	      0.06433381	     -0.71287536	      1.09919734	      0.03958684	     -0.54150840	      1.01464370	      0.49486323	     -3.95458446	      7.52419181	      0.00000000	      0.00000000	     24.86597136	      2.32784320	     -2.02645735	      4.93492956	    -10.08051237	     33.49029530	     48.46459984	     75.35888215	      5.80839520	     -0.55004680	     23.14858300	     -8.35477394	     71.84102566	     43.46837833	     57.06004615	      7.74937484	     -2.02572697
      1.96666667	     -2.46520543	     -4.67980851	     90.64358853	      0.24227540	      0.90443975	      0.65722773	     10.37907210	     -5.41896260	    -12.26301801	     18.68918752	      0.32618786	     38.83453454	      7.09357754	      0.00000000	     10.89981291	      4.67826566	      6.12032810	     15.84315513	      0.27651522	     35.88317919	     -5.43508144	      0.00000000	      0.06258964	     -0.36332332	      1.38992570	      0.11623521	     -0.48322002	      1.47679606	      0.10282851	     -0.88338433	      1.47679606	      0.07153370	     -0.88338433	      1.21618499	      0.05812074	     -0.74088892	      1.12931463	      0.03576372	     -0.56278783	      1.04244428	      0.44707151	     -4.10998608	      7.73034977	      0.00000000	      0.00000000	     25.13279012	      2.54150861	     -2.01543468	      4.91663170	    -10.02256768	     32.85413662	     48.48507279	     77.11669945	      6.31185914	     -0.65233592	     23.73291861	     -8.37062944	     73.72688420	     43.58303919	     51.25107866	      6.71227607	     -2.26321151
      1.98333333	     -2.48859644	     -4.59139956	     90.68875848	      0.24251446	      0.90440722	      0.65789679	     10.22207658	     -5.44966305	    -12.57813283	     18.45447730	      0.32209139	     38.81518226	      7.55269934	      0.00000000	     10.76599355	      4.68213851	      6.10558619	     15.58826875	      0.27206661	     36.06165847	     -5.07072484	      0.00000000	      0.05245822	     -0.36716269	      1.37403555	      0.09742016	     -0.48832638	      1.45991278	      0.08618361	     -0.89271936	      1.45991278	      0.05995450	     -0.89271936	      1.20228111	      0.04871270	     -0.74871816	      1.11640389	      0.02997463	     -0.56873501	      1.03052667	      0.37470381	     -4.15341777	      7.64197354	      0.00000000	      0.00000000	     25.20612331	      2.53814423	     -1.94592906	      5.13887728	    -10.02455060	     33.10245687	     48.36295598	     77.76762519	      6.16302014	     -1.04021686	     23.32173606	     -8.33127639	     72.24482643	     43.60797464	     50.47746076	      6.78123291	     -1.67394183
      2.00000000	     -2.65894300	     -4.46451748	     90.32704106	      0.24328371	      0.90445702	      0.65858625	     10.12293731	     -5.58655311	    -12.59133029	     18.27393731	      0.31894037	     38.76632295	      8.16786838	      0.00000000	     10.56665445	      4.69565554	      5.16514564	     15.29152981	      0.26688754	     36.16408449	     -4.05732753	      0.00000000	      0.03904988	     -0.38415957	      1.35190576	      0.07251952	     -0.51093223	      1.43639987	      0.06415504	     -0.93404559	      1.43639987	      0.04463010	     -0.93404559	      1.18291754	      0.03626171	     -0.78337820	      1.09842343	      0.02231310	     -0.59506318	      1.01392932	      0.27892935	     -4.34568993	      7.51889427	      0.00000000	      0.00000000	     25.06457951	      2.79308065	     -1.24022484	      5.82678416	     -9.99967644	     34.51241650	     47.85625548	     75.03056375	      6.61285117	     -0.93834243	     22.53090979	     -8.50959484	     69.88306880	     43.76750424	     50.00646616	      7.00027208	     -1.40576347
